<mxfile host="Electron" agent="Mozilla/5.0 (Macintosh; Intel Mac OS X 10_15_7) AppleWebKit/537.36 (KHTML, like Gecko) draw.io/27.0.9 Chrome/134.0.6998.205 Electron/35.4.0 Safari/537.36" version="27.0.9">
  <diagram name="Page-1" id="vXr083vepXQV8SW4tHHI">
    <mxGraphModel dx="784" dy="660" grid="1" gridSize="10" guides="1" tooltips="1" connect="1" arrows="1" fold="1" page="1" pageScale="1" pageWidth="850" pageHeight="1100" math="0" shadow="0">
      <root>
        <mxCell id="0" />
        <mxCell id="1" parent="0" />
        <mxCell id="5HywtPWPH-wtxFuc1LMU-5" value="Send a Query" style="edgeStyle=orthogonalEdgeStyle;rounded=0;orthogonalLoop=1;jettySize=auto;html=1;exitX=0.5;exitY=1;exitDx=0;exitDy=0;exitPerimeter=0;entryX=0.5;entryY=0;entryDx=0;entryDy=0;" edge="1" parent="1" source="5HywtPWPH-wtxFuc1LMU-1" target="5HywtPWPH-wtxFuc1LMU-2">
          <mxGeometry relative="1" as="geometry" />
        </mxCell>
        <mxCell id="5HywtPWPH-wtxFuc1LMU-1" value="Input" style="strokeWidth=2;html=1;shape=mxgraph.flowchart.start_1;whiteSpace=wrap;" vertex="1" parent="1">
          <mxGeometry x="40" y="40" width="100" height="60" as="geometry" />
        </mxCell>
        <mxCell id="5HywtPWPH-wtxFuc1LMU-3" value="Generate Queries" style="edgeStyle=orthogonalEdgeStyle;rounded=0;orthogonalLoop=1;jettySize=auto;html=1;" edge="1" parent="1" source="5HywtPWPH-wtxFuc1LMU-2">
          <mxGeometry relative="1" as="geometry">
            <mxPoint x="280" y="210" as="targetPoint" />
          </mxGeometry>
        </mxCell>
        <mxCell id="5HywtPWPH-wtxFuc1LMU-2" value="Query Agent" style="rounded=1;whiteSpace=wrap;html=1;absoluteArcSize=1;arcSize=14;strokeWidth=2;" vertex="1" parent="1">
          <mxGeometry x="40" y="160" width="100" height="100" as="geometry" />
        </mxCell>
        <mxCell id="5HywtPWPH-wtxFuc1LMU-7" style="rounded=0;orthogonalLoop=1;jettySize=auto;html=1;exitX=0.5;exitY=1;exitDx=0;exitDy=0;dashed=1;startArrow=classic;startFill=1;" edge="1" parent="1" source="5HywtPWPH-wtxFuc1LMU-4">
          <mxGeometry relative="1" as="geometry">
            <mxPoint x="330" y="320" as="targetPoint" />
          </mxGeometry>
        </mxCell>
        <mxCell id="5HywtPWPH-wtxFuc1LMU-17" value="Artical" style="edgeLabel;html=1;align=center;verticalAlign=middle;resizable=0;points=[];" vertex="1" connectable="0" parent="5HywtPWPH-wtxFuc1LMU-7">
          <mxGeometry x="-0.1667" y="1" relative="1" as="geometry">
            <mxPoint as="offset" />
          </mxGeometry>
        </mxCell>
        <mxCell id="5HywtPWPH-wtxFuc1LMU-4" value="Search Agent" style="rounded=1;whiteSpace=wrap;html=1;absoluteArcSize=1;arcSize=14;strokeWidth=2;" vertex="1" parent="1">
          <mxGeometry x="280" y="160" width="100" height="100" as="geometry" />
        </mxCell>
        <mxCell id="5HywtPWPH-wtxFuc1LMU-8" value="URL Scrape" style="rounded=1;whiteSpace=wrap;html=1;absoluteArcSize=1;arcSize=14;strokeWidth=2;" vertex="1" parent="1">
          <mxGeometry x="280" y="320" width="100" height="100" as="geometry" />
        </mxCell>
        <mxCell id="5HywtPWPH-wtxFuc1LMU-13" value="No" style="edgeStyle=orthogonalEdgeStyle;rounded=0;orthogonalLoop=1;jettySize=auto;html=1;entryX=1;entryY=0.5;entryDx=0;entryDy=0;exitX=0.5;exitY=1;exitDx=0;exitDy=0;exitPerimeter=0;" edge="1" parent="1" source="5HywtPWPH-wtxFuc1LMU-9" target="5HywtPWPH-wtxFuc1LMU-12">
          <mxGeometry relative="1" as="geometry">
            <Array as="points">
              <mxPoint x="590" y="530" />
            </Array>
          </mxGeometry>
        </mxCell>
        <mxCell id="5HywtPWPH-wtxFuc1LMU-9" value="Follow Up" style="strokeWidth=2;html=1;shape=mxgraph.flowchart.decision;whiteSpace=wrap;" vertex="1" parent="1">
          <mxGeometry x="540" y="160" width="100" height="100" as="geometry" />
        </mxCell>
        <mxCell id="5HywtPWPH-wtxFuc1LMU-10" style="edgeStyle=orthogonalEdgeStyle;rounded=0;orthogonalLoop=1;jettySize=auto;html=1;exitX=1;exitY=0.5;exitDx=0;exitDy=0;entryX=0;entryY=0.5;entryDx=0;entryDy=0;entryPerimeter=0;" edge="1" parent="1" source="5HywtPWPH-wtxFuc1LMU-4" target="5HywtPWPH-wtxFuc1LMU-9">
          <mxGeometry relative="1" as="geometry" />
        </mxCell>
        <mxCell id="5HywtPWPH-wtxFuc1LMU-18" value="Summarized the Article" style="edgeLabel;html=1;align=center;verticalAlign=middle;resizable=0;points=[];" vertex="1" connectable="0" parent="5HywtPWPH-wtxFuc1LMU-10">
          <mxGeometry x="-0.1818" y="-4" relative="1" as="geometry">
            <mxPoint as="offset" />
          </mxGeometry>
        </mxCell>
        <mxCell id="5HywtPWPH-wtxFuc1LMU-11" value="Yes" style="edgeStyle=orthogonalEdgeStyle;rounded=0;orthogonalLoop=1;jettySize=auto;html=1;entryX=1;entryY=0.5;entryDx=0;entryDy=0;entryPerimeter=0;" edge="1" parent="1" source="5HywtPWPH-wtxFuc1LMU-9" target="5HywtPWPH-wtxFuc1LMU-1">
          <mxGeometry relative="1" as="geometry">
            <Array as="points">
              <mxPoint x="590" y="70" />
            </Array>
          </mxGeometry>
        </mxCell>
        <mxCell id="5HywtPWPH-wtxFuc1LMU-12" value="Synthesis Agent" style="rounded=1;whiteSpace=wrap;html=1;absoluteArcSize=1;arcSize=14;strokeWidth=2;" vertex="1" parent="1">
          <mxGeometry x="280" y="480" width="100" height="100" as="geometry" />
        </mxCell>
        <mxCell id="5HywtPWPH-wtxFuc1LMU-14" value="Output" style="strokeWidth=2;html=1;shape=mxgraph.flowchart.terminator;whiteSpace=wrap;" vertex="1" parent="1">
          <mxGeometry x="280" y="640" width="100" height="60" as="geometry" />
        </mxCell>
        <mxCell id="5HywtPWPH-wtxFuc1LMU-15" value="Print the Report" style="edgeStyle=orthogonalEdgeStyle;rounded=0;orthogonalLoop=1;jettySize=auto;html=1;exitX=0.5;exitY=1;exitDx=0;exitDy=0;entryX=0.5;entryY=0;entryDx=0;entryDy=0;entryPerimeter=0;" edge="1" parent="1" source="5HywtPWPH-wtxFuc1LMU-12" target="5HywtPWPH-wtxFuc1LMU-14">
          <mxGeometry relative="1" as="geometry" />
        </mxCell>
      </root>
    </mxGraphModel>
  </diagram>
</mxfile>
